<?xml version="1.0" encoding="utf-8"?>
<!-- Generator: Adobe Illustrator 26.5.0, SVG Export Plug-In . SVG Version: 6.00 Build 0)  -->
<svg version="1.1" id="Laag_1" xmlns="http://www.w3.org/2000/svg" xmlns:xlink="http://www.w3.org/1999/xlink" x="0px" y="0px"
	 viewBox="0 0 446.89 108.92" style="enable-background:new 0 0 446.89 108.92;" xml:space="preserve">
<style type="text/css">
	.st0{fill:#FFFFFF;}
</style>
<path class="st0" d="M37.21,35.59l18.5,18.45l18.45-18.45v36.91h-6.09V50.44L55.71,62.76l-18.5-18.59V35.59z"/>
<path class="st0" d="M108.02,66.31l-3.14,6.18h-6.83l18.45-36.91l18.54,36.95h-6.92l-11.62-23.16l-5.45,10.84L108.02,66.31z"/>
<path class="st0" d="M173.48,59.26l7.57,13.24h-7.06L163.28,54l5.48,0.05c1.66,0,3.1-0.6,4.29-1.8c1.24-1.2,1.84-2.68,1.84-4.38
	c0-1.66-0.6-3.09-1.84-4.29c-1.2-1.2-2.63-1.8-4.29-1.8h-12.31l-0.69-0.69l-3.19-5.49h16.19c3.37,0,6.28,1.2,8.68,3.6
	c2.4,2.45,3.6,5.31,3.6,8.67c0,2.58-0.69,4.89-2.17,6.97C177.44,56.9,175.64,58.38,173.48,59.26z"/>
<rect x="263.86" y="50.87" class="st0" width="27.15" height="6.14"/>
<rect x="263.86" y="66.37" class="st0" width="27.15" height="6.14"/>
<rect x="263.86" y="35.58" class="st0" width="27.15" height="6.14"/>
<polygon class="st0" points="234.05,35.58 209.46,35.58 209.46,41.71 218.66,41.71 218.66,72.49 224.84,72.49 224.84,41.71 
	234.05,41.71 "/>
<path class="st0" d="M351.81,35.59V72.4v0.05v0.05l-30.68-27.59v-9.32l24.54,22.1v-22.1H351.81z"/>
<path class="st0" d="M411.07,61.75c0-2.95-1.06-5.49-3.19-7.61c-2.07-2.08-4.61-3.14-7.61-3.14h-9.18c-1.34,0-2.4-0.46-3.32-1.38
	c-0.88-0.92-1.29-1.98-1.29-3.28c0-0.6,0.09-1.2,0.32-1.75c0.23-0.55,0.55-1.06,0.97-1.48c0.46-0.46,0.92-0.79,1.52-1.02
	c0.55-0.23,1.15-0.32,1.79-0.32v0h9.36v-6.19l-9.36,0.01c-2.99,0-5.53,1.06-7.6,3.18c-2.08,2.12-3.14,4.61-3.14,7.57
	c0,3,1.06,5.54,3.14,7.66c2.08,2.08,4.62,3.14,7.61,3.14h9.18c1.29,0,2.35,0.46,3.28,1.38c0.88,0.92,1.38,1.98,1.38,3.23
	c0,0.65-0.14,1.25-0.37,1.8c-0.23,0.6-0.56,1.06-0.97,1.48c-0.42,0.42-0.92,0.74-1.52,0.97c-0.55,0.23-1.15,0.32-1.8,0.32v0h-9.35
	v6.19l9.36-0.01c2.99,0,5.53-1.06,7.6-3.14C410,67.24,411.07,64.7,411.07,61.75z"/>
</svg>
